<?xml version="1.0" standalone="no"?>
<!DOCTYPE svg PUBLIC "-//W3C//DTD SVG 20010904//EN"
 "http://www.w3.org/TR/2001/REC-SVG-20010904/DTD/svg10.dtd">
<svg version="1.0" xmlns="http://www.w3.org/2000/svg"
 width="64.000000pt" height="64.000000pt" viewBox="0 0 64.000000 64.000000"
 preserveAspectRatio="xMidYMid meet">
<metadata>
Created by potrace 1.16, written by Peter Selinger 2001-2019
</metadata>
<g transform="translate(0.000000,64.000000) scale(0.100000,-0.100000)"
fill="#000000" stroke="none">
<path d="M631 534 c0 -11 3 -14 6 -6 3 7 2 16 -1 19 -3 4 -6 -2 -5 -13z M350
467 c-9 -7 -17 -28 -18 -48 -4 -50 17 -69 76 -69 28 0 42 4 34 8 -7 5 -10 16
-6 26 4 11 2 21 -6 26 -17 10 -3 53 16 46 7 -3 16 -1 19 4 4 6 -6 10 -22 11
-15 0 -39 2 -53 5 -14 2 -32 -2 -40 -9z M225 450 c-4 -6 -23 -7 -46 -4 -35 6
-39 4 -39 -15 0 -11 5 -21 10 -21 6 0 10 5 10 10 0 6 6 10 14 10 23 0 4 -54
-20 -58 -21 -3 -49 -55 -41 -76 7 -17 132 -29 175 -17 19 6 34 6 37 0 4 -5 18
-10 33 -10 20 -1 22 -2 7 -6 -11 -2 -27 -7 -35 -10 -8 -3 -30 -7 -48 -8 -41
-3 -68 -25 -31 -26 59 -1 145 -11 152 -19 10 -9 -148 -49 -172 -43 -13 3 -17
11 -13 29 2 14 0 24 -7 24 -7 0 -10 4 -7 9 9 13 -41 6 -59 -9 -10 -8 -15 -30
-15 -61 0 -55 6 -58 85 -39 53 12 162 15 200 6 30 -7 31 -6 43 40 7 26 22 60
33 75 l20 28 -33 -1 c-51 -2 -94 3 -80 9 6 2 12 12 13 21 0 11 2 12 6 5 8 -21
71 -16 83 6 5 11 7 22 2 24 -7 5 -138 8 -262 6 -87 -1 -92 -1 -85 11 3 5 29 9
57 8 37 0 53 4 60 15 4 9 14 22 22 29 7 7 16 26 20 41 6 26 5 27 -38 27 -25 0
-48 -5 -51 -10z"/>
</g>
</svg>
