<svg xmlns="http://www.w3.org/2000/svg" viewBox="0 0 1080 1080"><title>svg-black-1path</title><g id="export"><g id="svg-black-1path"><path d="M1049.1,600.81a338.29,338.29,0,0,0-93.27-177.09l-29.84-30a337.59,337.59,0,0,0-115.91-76.28h0a324,324,0,0,1,87.19-193.68q-2.93-3.11-5.94-6.14-2.82-2.82-5.68-5.55a320.26,320.26,0,0,0-171-84.86,331.86,331.86,0,0,0-114.06,1.57,336.07,336.07,0,0,0-176.39,93.66l-29.82,30a339,339,0,0,0-76,116.39A321.36,321.36,0,0,1,125.5,181.29c-2.07,2-4.11,4-6.13,6-1.86,1.9-3.71,3.8-5.53,5.7a322.6,322.6,0,0,0-84.5,171.71,337.78,337.78,0,0,0,94.84,291.63l29.82,30a337.5,337.5,0,0,0,115.93,76.27,324,324,0,0,1-87.18,193.68c1.94,2.07,3.93,4.12,5.93,6.14s3.78,3.74,5.69,5.56a320.14,320.14,0,0,0,171,84.85,332.42,332.42,0,0,0,114.07-1.57A336,336,0,0,0,655.81,957.5l29.84-29.93a339.37,339.37,0,0,0,76-116.39h0a321.54,321.54,0,0,1,192.9,87.53q3.07-2.93,6.11-6c1.88-1.89,3.73-3.78,5.54-5.71a322.52,322.52,0,0,0,84.51-171.69A336.15,336.15,0,0,0,1049.1,600.81ZM784,667.11q-1-15.66-3.48-31.16a326.25,326.25,0,0,0-31.14-96.09L689,539.24c0,112-107.63,328.24-266.1,328.24a333.16,333.16,0,0,0-9.54-82.55q15.6-1,31-3.48a323.24,323.24,0,0,0,95.69-31.27l.63-60.54c-111.57,0-326.92-108-326.92-267.18a329.18,329.18,0,0,0,82.22-9.58c.65,10.43,1.81,20.85,3.47,31.17a326.52,326.52,0,0,0,31.13,96.09l60.31.62c0-112,107.61-328.25,266.1-328.25a332.8,332.8,0,0,0,9.52,82.56q-15.58,1-31,3.49a322.72,322.72,0,0,0-95.7,31.27l-.61,60.53c111.55,0,326.92,108.07,326.92,267.19A328.12,328.12,0,0,0,784,667.11Z"/></g></g></svg>