<svg xmlns="http://www.w3.org/2000/svg" viewBox="0 0 1080 1080"><defs><style>.cls-1{fill:#ff4500;}</style></defs><title>svg-orange-4paths</title><g id="export"><g id="svg-orange-4paths"><path class="cls-1" d="M1050.67,715.35a322.62,322.62,0,0,1-84.51,171.7c-1.81,1.91-3.66,3.81-5.53,5.7s-4.06,4-6.12,6a321.58,321.58,0,0,0-192.9-87.54q-16.5-1.49-33.45-1.34l-141,1.46q5.77-9.48,12.26-18.6A321.49,321.49,0,0,1,783.94,667.12a328.66,328.66,0,0,1,82.22-9.58c0-159.12-215.35-267.18-326.91-267.18l.61-60.54a323.18,323.18,0,0,1,95.7-31.26c10.28-1.67,20.66-2.84,31.05-3.49a333.86,333.86,0,0,1,143.47,22.42A337.49,337.49,0,0,1,926,393.77l29.82,29.94a337.78,337.78,0,0,1,94.85,291.64Z"/><path class="cls-1" d="M365.37,1052.74a320.28,320.28,0,0,1-171-84.85c-1.9-1.82-3.79-3.68-5.68-5.56-2-2-4-4.07-5.93-6.14a324,324,0,0,0,87.18-193.68q1.49-16.57,1.34-33.59l-1.45-141.54q9.44,5.8,18.51,12.31A322.43,322.43,0,0,1,413.4,784.93a332.63,332.63,0,0,1,9.54,82.55c158.48,0,266.1-216.23,266.1-328.23l60.29.61A326.25,326.25,0,0,1,780.47,636c1.66,10.32,2.83,20.74,3.47,31.17a337.91,337.91,0,0,1-98.3,260.44l-29.82,30a336.15,336.15,0,0,1-176.38,93.66A332.42,332.42,0,0,1,365.37,1052.74Z"/><path class="cls-1" d="M29.33,364.66A322.59,322.59,0,0,1,113.84,193c1.82-1.92,3.67-3.81,5.53-5.71q3-3,6.12-5.95a321.57,321.57,0,0,0,192.9,87.53,330.7,330.7,0,0,0,33.45,1.34l141-1.45q-5.78,9.48-12.26,18.59a322.11,322.11,0,0,1-34.24,40.55,319.52,319.52,0,0,1-150.25,85,328.65,328.65,0,0,1-82.22,9.57c0,159.12,215.36,267.18,326.91,267.18l-.61,60.54a323.49,323.49,0,0,1-95.7,31.27c-10.28,1.66-20.65,2.83-31.05,3.48a333.45,333.45,0,0,1-143.47-22.42A337.44,337.44,0,0,1,154,686.23l-29.82-29.94A337.85,337.85,0,0,1,29.33,364.66Z"/><path class="cls-1" d="M714.63,27.26a320.24,320.24,0,0,1,171,84.85c1.91,1.82,3.79,3.68,5.68,5.56q3,3,5.93,6.14a324,324,0,0,0-87.18,193.68q-1.49,16.58-1.33,33.59l1.45,141.54q-9.45-5.81-18.52-12.31A322.43,322.43,0,0,1,666.6,295.07a332.15,332.15,0,0,1-9.53-82.55C498.59,212.52,391,428.75,391,540.75l-60.29-.61a326.25,326.25,0,0,1-31.14-96.09c-1.66-10.32-2.82-20.74-3.47-31.17a337.91,337.91,0,0,1,98.3-260.44l29.82-29.95A336.14,336.14,0,0,1,600.57,28.83,332.36,332.36,0,0,1,714.63,27.26Z"/></g></g></svg>